<?xml version="1.0" standalone="no"?>
<!DOCTYPE svg PUBLIC "-//W3C//DTD SVG 20010904//EN"
 "http://www.w3.org/TR/2001/REC-SVG-20010904/DTD/svg10.dtd">
<svg version="1.0" xmlns="http://www.w3.org/2000/svg"
 width="80.000000pt" height="80.000000pt" viewBox="0 0 80.000000 80.000000"
 preserveAspectRatio="xMidYMid meet">

<g transform="translate(0.000000,80.000000) scale(0.100000,-0.100000)"
fill="#000000" stroke="none">
<path d="M0 675 l0 -125 50 0 50 0 0 -75 0 -75 150 0 150 0 0 200 0 200 -200
0 -200 0 0 -125z"/>
<path fill="#4f46e5" d="M480 401 l0 -401 23 0 c45 0 142 22 177 40 49 25 87 68 105 119 22
62 22 395 -1 470 -28 97 -112 153 -246 168 l-58 6 0 -402z"/>
<path d="M100 228 c0 -78 4 -99 23 -133 34 -60 92 -88 194 -93 l83 -5 0 162 0
161 -150 0 -150 0 0 -92z"/>
</g>
</svg>
