<svg width="22" height="22" viewBox="0 0 22 22" fill="none" xmlns="http://www.w3.org/2000/svg">
<path d="M15.0526 2.89464C15.0526 5.13274 16.8669 6.9474 19.1054 6.9474C19.7275 6.9474 20.3166 6.80741 20.8433 6.55696L20.8422 18.8139C20.8422 20.5727 19.4166 21.9983 17.6579 21.9983H3.18434C1.42561 21.9983 0 20.5727 0 18.8139V4.34004C0 2.58166 1.42561 1.15605 3.18434 1.15605H15.4441C15.1933 1.68266 15.0526 2.27215 15.0526 2.89464ZM19.1054 0C20.704 0 22 1.29604 22 2.89464C22 4.49323 20.704 5.78927 19.1054 5.78927C17.5068 5.78927 16.2107 4.49323 16.2107 2.89464C16.2107 1.29604 17.5068 0 19.1054 0Z" fill="#8F92A5"/>
</svg>
