<svg width="16" height="12" viewBox="0 0 16 12" fill="none" xmlns="http://www.w3.org/2000/svg">
<path d="M15.4843 7.35431L13.5488 5.23887L15.4843 3.4834V7.35431Z" fill="#9C9C9C"/>
<path d="M1.93545 5.23779L0 7.35431V3.4834L1.93545 5.23779Z" fill="#9C9C9C"/>
<path d="M15.4834 9.09275V11.1146C15.4834 11.6035 15.1085 12.0001 14.6464 12.0001H0.837073C0.374893 12.0001 0 11.6035 0 11.1146V9.09275L2.99256 5.80664L6.41111 8.92118C6.76665 9.24365 7.23851 9.4228 7.74172 9.4228C8.24493 9.4228 8.71911 9.24365 9.07484 8.92118L12.4909 5.80664L15.4836 9.09275H15.4834Z" fill="#9C9C9C"/>
<path d="M15.4836 0.83607V1.67466L8.18213 7.97621C7.94736 8.1798 7.53627 8.1798 7.3015 7.97621L0 1.67466V0.83607C0 0.373246 0.374897 0 0.837084 0H14.6465C15.1085 0 15.4836 0.373246 15.4836 0.83607Z" fill="#9C9C9C"/>
</svg>
