<svg width="32" height="32" viewBox="0 0 32 32" fill="none" xmlns="http://www.w3.org/2000/svg">
<mask id="mask0_1431_197" style="mask-type:luminance" maskUnits="userSpaceOnUse" x="16" y="14" width="11" height="10">
<path d="M26.2119 16.2343C26.2119 15.5044 26.1459 14.8031 26.0221 14.1304H16.209V18.1087H21.8162C21.5743 19.3948 20.8407 20.4833 19.7369 21.2132V23.7934H23.104C25.0745 22.0024 26.2107 19.3662 26.2107 16.2332L26.2119 16.2343Z" fill="white"/>
</mask>
<g mask="url(#mask0_1431_197)">
<path d="M32.0005 8.41602H10.4199V29.508H32.0005V8.41602Z" fill="#3E82F1"/>
</g>
<mask id="mask1_1431_197" style="mask-type:luminance" maskUnits="userSpaceOnUse" x="6" y="17" width="18" height="10">
<path d="M16.2074 26.2853C19.0203 26.2853 21.3796 25.3647 23.1036 23.7931L19.7365 21.2128C18.8039 21.8296 17.6098 22.1951 16.2086 22.1951C13.4953 22.1951 11.1973 20.3859 10.3781 17.9541H6.89648V20.6189C8.61127 23.9804 12.1346 26.2853 16.2074 26.2853Z" fill="white"/>
</mask>
<g mask="url(#mask1_1431_197)">
<path d="M28.8922 12.2397H1.10742V31.9999H28.8922V12.2397Z" fill="#32A753"/>
</g>
<mask id="mask2_1431_197" style="mask-type:luminance" maskUnits="userSpaceOnUse" x="5" y="11" width="6" height="10">
<path d="M10.3772 17.9542C10.1689 17.3375 10.0509 16.6784 10.0509 15.9999C10.0509 15.3215 10.1689 14.6624 10.3772 14.0456V11.3809H6.89558C6.18977 12.7698 5.78711 14.3403 5.78711 15.9999C5.78711 17.6596 6.18977 19.2301 6.89558 20.619L10.3772 17.9542Z" fill="white"/>
</mask>
<g mask="url(#mask2_1431_197)">
<path d="M16.1666 5.6665H0V26.3336H16.1666V5.6665Z" fill="#F9BB00"/>
</g>
<mask id="mask3_1431_197" style="mask-type:luminance" maskUnits="userSpaceOnUse" x="6" y="5" width="18" height="10">
<path d="M16.2074 9.80459C17.7371 9.80459 19.1105 10.3232 20.1901 11.3431L23.1788 8.39283C21.3738 6.7332 19.0157 5.71436 16.2074 5.71436C12.1346 5.71436 8.61011 8.01932 6.89648 11.3808L10.3781 14.0456C11.1973 11.615 13.4941 9.80459 16.2086 9.80459H16.2074Z" fill="white"/>
</mask>
<g mask="url(#mask3_1431_197)">
<path d="M28.9674 0H1.10742V19.7601H28.9674V0Z" fill="#E74133"/>
</g>
</svg>
