<svg width="11" height="11" viewBox="0 0 11 11" fill="none" xmlns="http://www.w3.org/2000/svg">
<path d="M5.50049 10.1138C8.0486 10.1138 10.1143 8.04811 10.1143 5.5C10.1143 2.95189 8.0486 0.88623 5.50049 0.88623C2.95237 0.88623 0.886719 2.95189 0.886719 5.5C0.886719 8.04811 2.95237 10.1138 5.50049 10.1138Z" fill="#B3B3B3"/>
<path d="M6.57563 3.35453C6.43447 3.23057 6.27055 3.13561 6.08342 3.07008C5.89629 3.00455 5.70057 2.97168 5.49625 2.97168C5.29193 2.97168 5.08289 3.00584 4.89834 3.07373C4.71357 3.14184 4.5518 3.23787 4.41322 3.36184C4.27465 3.4858 4.16529 3.63898 4.08516 3.82117C4.0048 4.00357 3.96484 4.2066 3.96484 4.43004H4.91295C4.91295 4.2601 4.9615 4.11658 5.05883 3.99971C5.15594 3.88305 5.30182 3.82482 5.49646 3.82482C5.69111 3.82482 5.82582 3.88197 5.93045 3.99605C6.03486 4.11035 6.08729 4.25258 6.08729 4.42273C6.08729 4.50545 6.06666 4.58816 6.0252 4.67066C5.98395 4.75338 5.9341 4.83373 5.87566 4.91129L5.41891 5.49631C5.32158 5.62264 5.05883 5.98852 5.05883 6.36256V6.58148H6.00693V6.4283C6.00693 6.36514 6.01896 6.29939 6.04346 6.23129C6.06773 6.1634 6.18203 5.99711 6.22113 5.94834L6.67789 5.34162C6.77994 5.20563 6.8648 5.06576 6.93312 4.92225C7.00123 4.77895 7.03518 4.6148 7.03518 4.43004C7.03518 4.19672 6.99371 3.99004 6.91121 3.81021C6.8285 3.63039 6.71678 3.47828 6.57584 3.35453H6.57563Z" fill="white"/>
<path d="M6.03563 7.05859H5.0293V8.0284H6.03563V7.05859Z" fill="white"/>
<path d="M5.5 0C2.46232 0 0 2.46232 0 5.5C0 8.53768 2.46232 11 5.5 11C8.53768 11 11 8.53768 11 5.5C11 2.46232 8.53746 0 5.5 0ZM5.5 9.625C3.22545 9.625 1.375 7.77455 1.375 5.5C1.375 3.22545 3.22545 1.375 5.5 1.375C7.77455 1.375 9.625 3.22545 9.625 5.5C9.625 7.77455 7.77455 9.625 5.5 9.625Z" fill="#B3B3B3"/>
</svg>
