<svg xmlns="http://www.w3.org/2000/svg" width="20" height="20" viewBox="0 0 20 20" fill="none">
    <path fill-rule="evenodd" clip-rule="evenodd"
          d="M9.54425 0.886719L10.9303 9.01093L19.0828 7.82002L11.7846 11.6502L15.4366 19.0361L9.54142 13.2795L3.64345 19.0361L7.29538 11.6502L0 7.82002L8.1525 9.01093L9.53859 0.886719H9.54425Z"
          fill="#FFDD6C"/>
    <path fill-rule="evenodd" clip-rule="evenodd"
          d="M16.5506 0L16.907 2.07914L18.9946 1.77363L17.1277 2.75239L18.0612 4.642L16.5534 3.16821L15.0429 4.642L15.9764 2.75239L14.1094 1.77363L16.197 2.07914L16.5534 0L16.5506 0Z"
          fill="#FFDD6C"/>
    <path fill-rule="evenodd" clip-rule="evenodd"
          d="M4.50772 2.56055L4.66613 3.49404L5.60245 3.35826L4.76513 3.79955L5.18379 4.64817L4.50772 3.98624L3.82881 4.64817L4.24747 3.79955L3.41016 3.35826L4.34648 3.49404L4.50489 2.56055H4.50772Z"
          fill="#FFDD6C"/>
    <path fill-rule="evenodd" clip-rule="evenodd"
          d="M9.15231 17.5742L9.36447 18.239L10.0292 18.4511L9.36447 18.6633L9.15231 19.3281L8.94015 18.6633L8.27539 18.4511L8.94015 18.239L9.15231 17.5742Z"
          fill="#FFDD6C"/>
    <path fill-rule="evenodd" clip-rule="evenodd"
          d="M17.4316 11.6182L17.6438 12.2829L18.3085 12.4951L17.6438 12.7072L17.4316 13.372L17.2194 12.7072L16.5547 12.4951L17.2194 12.2829L17.4316 11.6182Z"
          fill="#FFDD6C"/>
    <path d="M6.74711 6.27712C6.92815 6.27712 6.92815 5.99707 6.74711 5.99707C6.56607 5.99707 6.56607 6.27712 6.74711 6.27712Z"
          fill="white"/>
    <path d="M12.6084 6.27712C12.7895 6.27712 12.7895 5.99707 12.6084 5.99707C12.4274 5.99707 12.4274 6.27712 12.6084 6.27712Z"
          fill="white"/>
    <path d="M12.6084 3.34938C12.7895 3.34938 12.7895 3.06934 12.6084 3.06934C12.4274 3.06934 12.4274 3.34938 12.6084 3.34938Z"
          fill="white"/>
</svg>